<svg width="71" height="78" viewBox="0 0 71 78" fill="none" xmlns="http://www.w3.org/2000/svg">
<path d="M35.5 3L68 21L35.5 3ZM35.5 3L3 21L35.5 3ZM68 21V57V21ZM68 57L51.75 48L68 57ZM35.5 75L19.25 48L35.5 75ZM35.5 75V39V75ZM3 57V21V57ZM3 57L19.25 30L3 57ZM51.75 30L35.5 39L51.75 30ZM51.75 48L35.5 39L51.75 48ZM19.25 30L35.5 39Z" fill="black"/>
<path d="M19.25 30L35.5 39M35.5 3L68 21L35.5 3ZM35.5 3L3 21L35.5 3ZM68 21V57V21ZM68 57L51.75 48L68 57ZM35.5 75L19.25 48L35.5 75ZM35.5 75V39V75ZM3 57V21V57ZM3 57L19.25 30L3 57ZM51.75 30L35.5 39L51.75 30ZM51.75 48L35.5 39L51.75 48Z" stroke="black" stroke-width="5" stroke-linecap="round" stroke-linejoin="round"/>
</svg>
